<?xml version="1.0" encoding="utf-8"?>
<svg width="538" height="540" viewBox="0 0 538 540" xmlns="http://www.w3.org/2000/svg">
<rect id="frame" x="0" y="0" width="538" height="540" fill="#ffffbf" stroke="none" stroke-width="0"/>

<!-- Association IS_A -->
<g class="page_0_n1H28wtD diagram_page" visibility="visible">
	<line x1="210" y1="119" x2="210" y2="279" stroke="#74add1" stroke-width="2"/>
	<text x="215" y="246" fill="#d73027" font-family="Verdana" font-size="12">T,O</text>
	<line x1="309" y1="279" x2="210" y2="279" stroke="#74add1" stroke-width="2"/>
	<text x="243" y="296" fill="#d73027" font-family="Verdana" font-size="12">     </text>
	<polygon points="270 279 258 285 262 279 258 273" fill="#74add1" stroke-width="0"/>
	<line x1="80" y1="279" x2="210" y2="279" stroke="#74add1" stroke-width="2"/>
	<text x="124" y="296" fill="#d73027" font-family="Verdana" font-size="12">     </text>
	<polygon points="119 279 131 273 127 279 131 285" fill="#74add1" stroke-width="0"/>
	<g>
		<path d="M218 254 a14 14 90 0 1 14 14 V279 h-44 V268 a14 14 90 0 1 14 -14" fill="#abd9e9" stroke="#abd9e9" stroke-width="0"/>
		<path d="M232 279 v11 a14 14 90 0 1 -14 14 H202 a14 14 90 0 1 -14 -14 V279 H44" fill="#e0f3f8" stroke="#e0f3f8" stroke-width="0"/>
		<rect x="188" y="254" width="44" height="50" fill="none" rx="14" stroke="#74add1" stroke-width="2"/>
		<line x1="188" y1="279" x2="232" y2="279" stroke="#74add1" stroke-width="1"/>
		<text x="195" y="271.75" fill="#000" font-family="Verdana" font-size="12">IS_A</text>
	</g>
</g>

<!-- Association ETRE_RESPONSABLE -->
<g class="page_0_n1H28wtD diagram_page" visibility="visible">
	<line x1="80" y1="279" x2="80" y2="388" stroke="#74add1" stroke-width="2"/>
	<text x="85" y="313" fill="#d73027" font-family="Verdana" font-size="12">0,N</text>
	<polygon points="80 296 86 308 80 304 74 308" fill="#74add1" stroke-width="0"/>
	<line x1="210" y1="388" x2="80" y2="388" stroke="#74add1" stroke-width="2"/>
	<text x="157" y="405" fill="#d73027" font-family="Verdana" font-size="12">1,1</text>
	<g>
		<path d="M137 363 a14 14 90 0 1 14 14 V388 h-142 V377 a14 14 90 0 1 14 -14" fill="#abd9e9" stroke="#abd9e9" stroke-width="0"/>
		<path d="M151 388 v11 a14 14 90 0 1 -14 14 H23 a14 14 90 0 1 -14 -14 V388 H142" fill="#e0f3f8" stroke="#e0f3f8" stroke-width="0"/>
		<rect x="9" y="363" width="142" height="50" fill="none" rx="14" stroke="#74add1" stroke-width="2"/>
		<line x1="9" y1="388" x2="151" y2="388" stroke="#74add1" stroke-width="1"/>
		<text x="16" y="380.75" fill="#000" font-family="Verdana" font-size="12">ETRE_RESPONSABLE</text>
	</g>
</g>

<!-- Association RESERVER -->
<g class="page_0_n1H28wtD diagram_page" visibility="visible">
	<line x1="455" y1="388" x2="309" y2="388" stroke="#74add1" stroke-width="2"/>
	<text x="354" y="405" fill="#d73027" font-family="Verdana" font-size="12">0,N</text>
	<line x1="210" y1="388" x2="309" y2="388" stroke="#74add1" stroke-width="2"/>
	<text x="242" y="405" fill="#d73027" font-family="Verdana" font-size="12">0,N</text>
	<polygon points="237 388 249 382 245 388 249 394" fill="#74add1" stroke-width="0"/>
	<line x1="309" y1="489" x2="309" y2="388" stroke="#74add1" stroke-width="2"/>
	<text x="314" y="439" fill="#d73027" font-family="Verdana" font-size="12">0,N</text>
	<line x1="309" y1="279" x2="309" y2="388" stroke="#74add1" stroke-width="2"/>
	<text x="314" y="321" fill="#d73027" font-family="Verdana" font-size="12">0,N</text>
	<g>
		<path d="M335 354 a14 14 90 0 1 14 14 V379 h-80 V368 a14 14 90 0 1 14 -14" fill="#abd9e9" stroke="#abd9e9" stroke-width="0"/>
		<path d="M349 379 v29 a14 14 90 0 1 -14 14 H283 a14 14 90 0 1 -14 -14 V379 H80" fill="#e0f3f8" stroke="#e0f3f8" stroke-width="0"/>
		<rect x="269" y="354" width="80" height="68" fill="none" rx="14" stroke="#74add1" stroke-width="2"/>
		<line x1="269" y1="379" x2="349" y2="379" stroke="#74add1" stroke-width="1"/>
		<text x="277" y="371.75" fill="#000" font-family="Verdana" font-size="12">RESERVER</text>
		<text x="276" y="396.8" fill="#000" font-family="Verdana" font-size="12">duree</text>
		<text x="276" y="413.8" fill="#000" font-family="Verdana" font-size="12">a_paye</text>
	</g>
</g>

<!-- Entity PERSONNE -->
<g class="page_0_n1H28wtD diagram_page" visibility="visible">
	<g>
		<rect x="168" y="9" width="84" height="25" fill="#fdae61" stroke="#fdae61" stroke-width="0" opacity="1"/>
		<rect x="168" y="34" width="84" height="195" fill="#fee090" stroke="#fee090" stroke-width="0" opacity="1"/>
		<rect x="168" y="9" width="84" height="220" fill="none" stroke="#f46d43" stroke-width="2" opacity="1"/>
		<line x1="168" y1="34" x2="252" y2="34" stroke="#f46d43" stroke-width="1"/>
	</g>
	<text x="177" y="26.75" fill="#000" font-family="Verdana" font-size="12">PERSONNE</text>
	<text x="173" y="51.8" fill="#000" font-family="Verdana" font-size="12">id</text>
	<line x1="173" y1="54" x2="185" y2="54" stroke="#000" stroke-width="1"/>
	<text x="173" y="68.8" fill="#000" font-family="Verdana" font-size="12">nomp</text>
	<text x="173" y="85.8" fill="#000" font-family="Verdana" font-size="12">prenomp</text>
	<text x="173" y="102.8" fill="#000" font-family="Verdana" font-size="12">ddn</text>
	<text x="173" y="119.8" fill="#000" font-family="Verdana" font-size="12">poids</text>
	<text x="173" y="136.8" fill="#000" font-family="Verdana" font-size="12">adressemail</text>
	<text x="173" y="153.8" fill="#000" font-family="Verdana" font-size="12">adresse</text>
	<text x="173" y="170.8" fill="#000" font-family="Verdana" font-size="12">code_postal</text>
	<text x="173" y="187.8" fill="#000" font-family="Verdana" font-size="12">ville</text>
	<text x="173" y="204.8" fill="#000" font-family="Verdana" font-size="12">numerotel</text>
	<text x="173" y="221.8" fill="#000" font-family="Verdana" font-size="12">mdp</text>
</g>

<!-- Entity MONITEUR -->
<g class="page_0_n1H28wtD diagram_page" visibility="visible">
	<g>
		<rect x="41" y="262" width="78" height="25" fill="#fdae61" stroke="#fdae61" stroke-width="0" opacity="1"/>
		<rect x="41" y="287" width="78" height="9" fill="#fee090" stroke="#fee090" stroke-width="0" opacity="1"/>
		<rect x="41" y="262" width="78" height="34" fill="none" stroke="#f46d43" stroke-width="2" opacity="1"/>
		<line x1="41" y1="287" x2="119" y2="287" stroke="#f46d43" stroke-width="1"/>
	</g>
	<text x="47" y="279.75" fill="#000" font-family="Verdana" font-size="12">MONITEUR</text>
</g>

<!-- Entity CLIENT -->
<g class="page_0_n1H28wtD diagram_page" visibility="visible">
	<g>
		<rect x="270" y="254" width="78" height="25" fill="#fdae61" stroke="#fdae61" stroke-width="0" opacity="1"/>
		<rect x="270" y="279" width="78" height="25" fill="#fee090" stroke="#fee090" stroke-width="0" opacity="1"/>
		<rect x="270" y="254" width="78" height="50" fill="none" stroke="#f46d43" stroke-width="2" opacity="1"/>
		<line x1="270" y1="279" x2="348" y2="279" stroke="#f46d43" stroke-width="1"/>
	</g>
	<text x="287" y="271.75" fill="#000" font-family="Verdana" font-size="12">CLIENT</text>
	<text x="275" y="296.8" fill="#000" font-family="Verdana" font-size="12">cotisationA</text>
</g>

<!-- Entity COURS -->
<g class="page_0_n1H28wtD diagram_page" visibility="visible">
	<g>
		<rect x="183" y="329" width="54" height="25" fill="#fdae61" stroke="#fdae61" stroke-width="0" opacity="1"/>
		<rect x="183" y="354" width="54" height="93" fill="#fee090" stroke="#fee090" stroke-width="0" opacity="1"/>
		<rect x="183" y="329" width="54" height="118" fill="none" stroke="#f46d43" stroke-width="2" opacity="1"/>
		<line x1="183" y1="354" x2="237" y2="354" stroke="#f46d43" stroke-width="1"/>
	</g>
	<text x="188" y="346.75" fill="#000" font-family="Verdana" font-size="12">COURS</text>
	<text x="188" y="371.8" fill="#000" font-family="Verdana" font-size="12">idc</text>
	<line x1="188" y1="374" x2="206" y2="374" stroke="#000" stroke-width="1"/>
	<text x="188" y="388.8" fill="#000" font-family="Verdana" font-size="12">nomc</text>
	<text x="188" y="405.8" fill="#000" font-family="Verdana" font-size="12">descc</text>
	<text x="188" y="422.8" fill="#000" font-family="Verdana" font-size="12">typec</text>
	<text x="188" y="439.8" fill="#000" font-family="Verdana" font-size="12">prix</text>
</g>

<!-- Entity HORAIRE -->
<g class="page_0_n1H28wtD diagram_page" visibility="visible">
	<g>
		<rect x="381" y="363" width="148" height="25" fill="#fdae61" stroke="#fdae61" stroke-width="0" opacity="1"/>
		<rect x="381" y="388" width="148" height="25" fill="#fee090" stroke="#fee090" stroke-width="0" opacity="1"/>
		<rect x="381" y="363" width="148" height="50" fill="none" stroke="#f46d43" stroke-width="2" opacity="1"/>
		<line x1="381" y1="388" x2="529" y2="388" stroke="#f46d43" stroke-width="1"/>
	</g>
	<text x="427" y="380.75" fill="#000" font-family="Verdana" font-size="12">HORAIRE</text>
	<text x="386" y="405.8" fill="#000" font-family="Verdana" font-size="12">jj/mm/aaaa hh:mm:ss</text>
	<line x1="386" y1="408" x2="524" y2="408" stroke="#000" stroke-width="1"/>
</g>

<!-- Entity PONEYS -->
<g class="page_0_n1H28wtD diagram_page" visibility="visible">
	<g>
		<rect x="277" y="447" width="64" height="25" fill="#fdae61" stroke="#fdae61" stroke-width="0" opacity="1"/>
		<rect x="277" y="472" width="64" height="59" fill="#fee090" stroke="#fee090" stroke-width="0" opacity="1"/>
		<rect x="277" y="447" width="64" height="84" fill="none" stroke="#f46d43" stroke-width="2" opacity="1"/>
		<line x1="277" y1="472" x2="341" y2="472" stroke="#f46d43" stroke-width="1"/>
	</g>
	<text x="284" y="464.75" fill="#000" font-family="Verdana" font-size="12">PONEYS</text>
	<text x="282" y="489.8" fill="#000" font-family="Verdana" font-size="12">idpo</text>
	<line x1="282" y1="492" x2="309" y2="492" stroke="#000" stroke-width="1"/>
	<text x="282" y="506.8" fill="#000" font-family="Verdana" font-size="12">nomp</text>
	<text x="282" y="523.8" fill="#000" font-family="Verdana" font-size="12">poidssup</text>
</g>
</svg>